<?xml version="1.0" encoding="utf-8"?>
<!-- Generator: Adobe Illustrator 18.1.1, SVG Export Plug-In . SVG Version: 6.00 Build 0)  -->
<!DOCTYPE svg PUBLIC "-//W3C//DTD SVG 1.1//EN" "http://www.w3.org/Graphics/SVG/1.1/DTD/svg11.dtd">
<svg version="1.1" id="Layer_1" xmlns="http://www.w3.org/2000/svg" xmlns:xlink="http://www.w3.org/1999/xlink" x="0px" y="0px"
	 viewBox="0 0 206.3 68.4" enable-background="new 0 0 206.3 68.4" xml:space="preserve">
<g>
	<path fill="#4B334B" d="M17.4,30.9c0.5,2.1,1.9,6.7,2.4,9.3c0.1,0.8,0.2,1.3,0.2,2c0,1.3-0.4,2.6-2.2,3.2c-0.4,0.2-0.9,0.2-1.5,0.2
		c-3.3,0-6.4-2-8.5-4.6c-0.4-0.5-0.7-0.8-1-1.1c-0.6-0.9-1-2.1-1-2.8c0-0.6,0.2-1.2,0.7-1.5c0.1,0,0.2-0.1,0.4-0.1
		c0.6,0,1.4,0.3,2,0.6c0.7,0.4,1.3,1.1,1.3,1.3c0,0.4-0.2,0.8-0.2,1.2c0,1.1,2,2.9,3.2,3.5c0.9,0.5,1.5,0.7,1.7,0.7
		c0.8,0,1-0.8,1-1.1c0-0.8-0.1-2.1-0.1-2.5c-0.6-3.7-1.9-6.7-2.6-10.4c-0.2-1-0.3-1.7-0.3-2.5c0-0.2,0-0.5,0.1-0.8
		c0.2-0.9,0.3-3.2,2.4-3.2c5,0,6.4,3,6.7,4.9c0.1,0.6,0.2,0.7,0.2,1c0,0.4-0.2,0.7-1,0.7c-0.1,0-0.3,0-0.8-0.1
		c-0.9-0.2-1.4-0.9-1.8-1.3c-0.2-0.2-0.3-1.3-0.6-1.9c-0.2-0.3-0.4-0.5-0.6-0.5c-0.3,0-0.6,1-0.6,2.2C17,28.7,17.3,30.3,17.4,30.9z"
		/>
	<path fill="#4B334B" d="M28.9,32.1C28.9,32.2,29,32.2,28.9,32.1c0.1,0.1,0.3,0,0.4,0c1.4-0.3,3-0.9,4-1.6c0.2-0.1,0.3-0.2,0.6-0.2
		c0.8,0,2.2,0.5,2.2,1.2c0,0.5-0.5,1-1.2,1.3c-0.9,0.4-0.9,0.5-1.5,0.7c-1.6,0.6-3.5,0.9-5.1,1.5c-0.6,0.2-0.8,0.7-1.1,1.9
		c-0.1,0.6-0.3,0.8-0.4,1.2c-0.2,1.1-1.3,3.8-1.5,5.5c-0.1,0.6-0.4,1.7-1.6,1.7c-0.6,0-1.2-0.2-1.7-0.5c-0.4-0.3-0.5-0.7-0.5-1.1
		c0-0.3,0.1-0.6,0.1-0.8c0.8-2.4,1.4-5.1,2.3-7.4c0.1-0.3,0.2-0.5,0.2-0.6s0-0.1-0.3-0.3c-0.9-0.5-1.1-1.3-1.9-2
		c-0.2-0.2-0.3-0.3-0.3-0.5c0-0.5,0.7-0.8,1.6-0.8c0.2,0,0.4,0,0.6,0.1c0.6,0.2,1,0.4,1.3,0.4c0.2,0,0.3-0.1,0.3-0.3
		c0.2-0.6,0.3-1,0.5-1.6c0.8-2,1.7-4.6,2.8-7c0.2-0.4,0.3-0.5,0.7-0.6c0.4-0.1,0.6-0.2,0.8-0.2c0.5,0,1.2,0.1,1.7,0.3
		c0.4,0.2,0.6,0.4,0.6,0.5c0,0.1-0.1,0.5-0.1,0.8c-0.5,2.4-2.2,5-3,6.7c-0.2,0.4-0.3,0.7-0.5,1.2C29,31.9,28.9,32.1,28.9,32.1z"/>
	<path fill="#4B334B" d="M37.7,40.2c1.2,0,1.6,0.5,1.6,1c0,0.3,0,0.6-0.5,1l-1.4,1.3c-0.6,0.5-2,1.6-3.4,1.6c-0.8,0-1.6-0.3-2.3-1.1
		c-0.5-0.6-1.2-1.6-1.2-3.2c0-0.9,0.2-1.9,0.5-2.7c0.2-0.6,0.4-1.2,0.6-1.7c1-2.4,2-4.8,3.2-7.3c0.4-0.8,1.1-1,1.9-1
		c0.4,0,1,0,1.6,0.4c0.2,0.1,0.4,0.5,0.4,0.8c0,1.3-1.8,3.3-2.2,4.1c-0.5,1.2-1.5,3.5-2,4.7c-0.1,0.3-0.8,2.1-0.8,3.3
		c0,0.4,0,0.7,0.3,0.7c0.3,0,0.8-0.3,1.9-1.1C36.3,40.7,36.9,40.2,37.7,40.2z M41.6,21.5c0.3,0.3,0.4,0.8,0.4,1.2
		c0,0.3-0.1,0.6-0.2,0.7c-0.4,0.4-1.3,1.7-2.4,1.7c-1,0-1.7-0.6-1.9-0.9c-0.2-0.4-0.3-0.8-0.3-1.2c0-0.5,0.1-1.1,0.4-1.5
		c0.4-0.4,1.1-0.6,1.9-0.6C40.3,20.9,41.2,21.1,41.6,21.5z"/>
	<path fill="#4B334B" d="M46.8,31.6c0-0.1-0.1-0.1-0.1-0.1c-0.1,0-2.6,3-3.9,5.4c-0.3,0.5-1.9,3.6-1.9,5c0,0.3,0,0.4,0.3,0.4
		c0.9,0,2.4-0.7,4.1-2c2.2-1.6,3.4-2.3,4.3-2.3c0.4,0,0.9,0.2,1.4,0.7c0.2,0.3,0.3,0.4,0.3,0.6c0,0.1-0.1,0.2-0.1,0.3
		c0,0.2,0,0.3-0.4,0.4c-0.6,0.2-1.4,0.7-3.6,2.5c-1.7,1.3-3.5,2.5-5.1,2.5c-2.2,0-3.8-1.6-4-1.9c-0.3-0.5-0.4-1-0.4-1.6
		c0-0.9,0.3-1.7,0.6-2.5c0.1-0.3,0.1-0.8,0.4-1.3c0.5-1,3.4-6.6,6-8.5c0.8-0.5,1.1-0.6,1.7-0.6c1.5,0,3.9,1.1,4.1,1.9
		c0.1,0.2,0.1,0.4,0.1,0.6c0,0.6-1.1,2.6-1.1,3.5c0,0.4-0.4,0.7-0.9,0.7c-0.4,0-0.8-0.1-1.2-0.4l-0.8-0.6C46.1,34,46,33.8,46,33.5
		s0.2-0.8,0.3-1C46.7,31.8,46.8,31.7,46.8,31.6z"/>
	<path fill="#4B334B" d="M60.7,28c0.2-0.4,0.8-1.2,1.9-1.2c0.4,0,0.8,0.2,1.4,0.5c0.5,0.3,0.8,0.5,0.8,0.8c0,0.5-0.9,1.9-1.5,2.3
		c-0.6,0.4-0.6,0.7-0.9,1c-1.6,1.3-3.7,2.8-5.3,3.8c-0.2,0.1-0.2,0.2-0.2,0.4c0,0.2,0.1,0.4,0.2,0.5c0.1,0.3,0.3,0.8,0.5,1.7
		c0.2,0.6,1.6,3.5,1.9,3.9c0.8,1,1.2,1.3,2,1.8c0.3,0.2,0.5,0.2,0.7,0.2c0.5,0,0.7,0.4,0.7,0.6s-0.1,0.5-0.3,0.7
		c-0.1,0.1-0.4,0.3-0.5,0.4c-0.2,0.2-0.5,0.3-1.1,0.3c-1.2,0-2.3-0.5-3.4-1.6c-0.2-0.2-0.5-0.3-0.8-0.8c-1.3-2.3-2-4.2-2.5-5.5
		c-0.2-0.5-0.2-0.6-0.3-0.6s-0.2,0.2-0.4,0.7c-0.4,1.1-0.8,2.5-1.1,3.8c-0.1,0.6-0.1,1.1-0.4,1.8c-0.2,0.6-0.5,1.1-1.1,1.1
		c-0.3,0-0.6,0.1-0.9,0.1c-0.4,0-0.7-0.1-1.1-0.4c-0.3-0.2-0.5-0.5-0.5-1c0-0.3,0-0.4,0.3-1.5c2.2-6.8,5.4-13.5,8.3-20.2
		c0.3-0.6,0.3-0.9,0.4-1.1c0.2-0.4,0.3-0.5,0.8-0.5c0.2,0,0.6,0,1.1,0.1c1.3,0.2,1.7,0.7,1.7,1.4c0,0.7-0.4,1.4-0.7,1.9
		c-0.6,0.8-0.9,1.3-1.1,1.7c-1.2,2-2.1,4.5-3.1,6.7c-0.2,0.4-0.3,0.6-0.3,0.7c0,0,0,0.1,0.1,0.1c0.1,0,0.3-0.1,0.8-0.5
		C58.5,30.6,59.7,29.6,60.7,28z"/>
	<path fill="#4B334B" d="M65.9,40.6c0.2-0.1,1-0.5,2.2-1.9c0.4-0.5,0.7-0.7,1.2-1.3c1-1.3,2.7-2.3,4.2-6.5c0.1-0.3,0.4-1.1,1.2-1.1
		c0.4,0,0.7,0.3,1.3,0.3c0.5,0,0.8,0.1,1.1,0.6c0.2,0.3,0.2,0.5,0.2,0.7c0,0.5-0.2,1-0.6,1.7c-0.3,0.5-0.6,0.9-0.8,1.2
		c-0.8,1.3-1.3,2.4-2,4.3c-0.3,0.8-1.6,4.3-1.8,5c-0.2,0.7-0.3,0.8-0.3,0.9c0,0.1,0,0.1,0.2,0.2c0.3,0.1,0.7,0.3,0.7,0.7
		c0,0.3-0.2,0.6-0.3,0.7c-2.2,3-3.3,6.2-3.9,9.3c-0.3,1.3-0.5,3.7-2.3,3.9c-0.3,0-0.7,0.1-1.2,0.1c-0.3,0-0.7-0.1-1.1-0.3
		c-0.5-0.3-0.6-0.8-0.6-1.4c0-1,0.5-2.2,0.6-2.5c0.8-1.8,1.8-3.8,2.8-5.7c0.2-1,1.2-4.3,2.1-7c0.1-0.3,0.2-0.5,0.2-0.6
		c0-0.1,0-0.1-0.1-0.1c-0.1,0-0.4,0.2-0.9,0.6c-0.8,0.6-1.8,1.2-2.2,1.2c-1.6,0-2.9-0.6-3.7-1.6c-0.2-0.3-0.3-0.8-0.3-1.2
		c0-1.9,1.1-5.3,1.3-5.9c0.7-1.9,1.6-3.8,2.2-5.9c0.1-0.5,0.7-1.1,1.5-1.1c0.1,0,0.2,0,0.4,0c0.6,0.1,1.1,0.1,1.6,0.4
		c0.3,0.2,0.5,0.6,0.5,0.9c0,0.5-0.2,0.9-0.4,1.2c-0.2,0.4-0.6,0.8-0.8,1.2c-1.1,2.5-1.5,4.1-2.3,6.7c-0.3,0.8-0.4,1.5-0.4,1.9
		c0,0.1,0,0.1,0.1,0.1S65.7,40.7,65.9,40.6z"/>
	<path fill="#4B334B" d="M97.9,45.4c-0.4,0-1.1-0.2-1.6-0.4c-1.3-0.8-1.5-0.9-1.9-2.2c-0.8-2.6-1.4-7.4-1.9-10.5
		c-0.1-0.9-0.2-1-0.3-1c-0.1,0-0.1,0-0.4,1c-1.7,5.6-1.9,6.5-2.4,8.6c-0.3,1.4-0.5,2.5-0.5,3.2c0,0.7-0.1,1.6-1.6,1.6
		c-0.2,0-0.5,0-0.8-0.1c-0.5-0.1-0.6-0.2-0.9-0.4c-0.3-0.2-0.7-0.4-0.7-0.7c0-0.2,0.2-1.4,0.5-2.3c0.9-3.5,2.7-9.2,3.2-10.9l0.2-0.9
		c0.2-0.6,1.3-5,1.4-5.6c0.1-0.5,0.7-0.4,0.7-0.6c0-0.1-0.6-1-0.6-1.6c0-0.3,0.1-0.6,0.5-0.7c0.2-0.1,1.1-0.3,1.9-0.3
		c0.4,0,0.8,0.1,1,0.3c0.1,0.1,0.2,0.3,0.3,0.5c2,5.9,1.7,11.7,3,17.6c0.1,0.6,0.2,0.8,0.3,0.8c0.1,0,0.2-0.2,0.4-0.8
		c1.5-3.4,2.4-7.1,3.5-10.8c0.2-0.8,0.4-1.2,0.6-1.8c0.3-1.2,0.2-2.4,0.6-3.6c0.2-0.7,0.3-0.8,0.9-0.8c0.2,0,0.6,0,1,0.1
		c0.6,0.1,0.9,0.1,1.3,0.4c0.7,0.5,0.9,0.9,0.9,1.4c0,0.4-0.3,0.9-0.4,1.1c-0.1,0.3-0.2,0.5-0.5,1.3c-1.5,4.5-2.9,9.8-5.6,16.5
		c-0.1,0.3-0.3,0.7-0.5,0.9C99,45.1,98.5,45.4,97.9,45.4z"/>
	<path fill="#4B334B" d="M117,30.8c0.5,0,1.2-0.1,2.5-0.1c1.6,0,2.6,0.6,2.6,1.2c0,0.3-0.3,0.5-0.6,0.6c-0.5,0.2-0.4,0.3-0.9,0.4
		c-0.8,0.1-1.6,0.4-2.5,0.6c-0.5,0.1-0.9,0.1-1.2,0.1c-0.1,0-0.2,0.1-0.3,0.4c-0.9,3.6-2,6.4-4.1,8.7c-0.4,0.4-1.7,2.1-3.3,2.1
		c-0.4,0-0.8-0.1-1.1-0.3c-1.3-0.6-2.4-1.5-2.7-2.3c-0.4-0.9-0.5-1.9-0.5-2.8c0-2.7,1.4-5.3,2.9-7.5c0.2-0.4,0.6-0.6,0.8-1
		c1-1.5,2.5-3.2,4.1-3.2c0.7,0,1.6,0.2,2.3,0.8c0.3,0.3,0.4,0.4,0.5,0.7C116,30.6,116.2,30.8,117,30.8z M112.1,31.4
		c-1.7,2.2-4.1,6.1-4.1,8.7c0,0.2,0,0.6,0.2,1c0.1,0.3,0.4,0.7,0.5,0.7c0.2,0,0.4-0.1,0.8-0.7c1.8-2.7,3.7-5.4,3.7-8.7
		c0-0.4,0-0.8-0.1-0.9c-0.2-0.1-0.2-0.2-0.3-0.3c0-0.1-0.1-0.1-0.1-0.1C112.6,31,112.4,31,112.1,31.4z"/>
	<path fill="#4B334B" d="M124.4,32.1C124.4,32.2,124.5,32.2,124.4,32.1c0.1,0.1,0.3,0,0.4,0c1.4-0.3,3-0.9,4-1.6
		c0.2-0.1,0.3-0.2,0.6-0.2c0.8,0,2.2,0.5,2.2,1.2c0,0.5-0.5,1-1.2,1.3c-0.9,0.4-0.9,0.5-1.5,0.7c-1.6,0.6-3.5,0.9-5.1,1.5
		c-0.6,0.2-0.8,0.7-1.1,1.9c-0.1,0.6-0.3,0.8-0.4,1.2c-0.2,1.1-1.3,3.8-1.5,5.5c-0.1,0.6-0.4,1.7-1.6,1.7c-0.6,0-1.2-0.2-1.7-0.5
		c-0.4-0.3-0.5-0.7-0.5-1.1c0-0.3,0.1-0.6,0.1-0.8c0.8-2.4,1.4-5.1,2.3-7.4c0.1-0.3,0.2-0.5,0.2-0.6s0-0.1-0.3-0.3
		c-0.9-0.5-1.1-1.3-1.9-2c-0.2-0.2-0.3-0.3-0.3-0.5c0-0.5,0.7-0.8,1.6-0.8c0.2,0,0.4,0,0.6,0.1c0.6,0.2,1,0.4,1.3,0.4
		c0.2,0,0.3-0.1,0.3-0.3c0.2-0.6,0.3-1,0.5-1.6c0.8-2,1.7-4.6,2.8-7c0.2-0.4,0.3-0.5,0.7-0.6c0.4-0.1,0.6-0.2,0.8-0.2
		c0.5,0,1.2,0.1,1.7,0.3c0.4,0.2,0.6,0.4,0.6,0.5c0,0.1-0.1,0.5-0.1,0.8c-0.5,2.4-2.2,5-3,6.7c-0.2,0.4-0.3,0.7-0.5,1.2
		C124.5,31.9,124.4,32.1,124.4,32.1z"/>
	<path fill="#4B334B" d="M133.3,44.7c-0.5,0.3-0.9,0.4-1.5,0.4c-1,0-2.1-0.4-3.7-1.2c-0.8-0.4-1.5-1.4-1.8-2.5
		c-0.3-0.8-0.4-1.6-0.4-2.4c0-0.5,0.1-0.9,0.2-1.4c1-3.4,3.2-6.3,5.7-9c0.7-0.8,2.1-1.6,3.8-1.6c0.7,0,1.5,0.1,2.3,0.4
		c1,0.4,1.3,1.4,1.3,2.3c0,1.3-1,3.2-1.8,4.1c-2.1,2.6-4.5,5.1-7.5,6.9c-0.3,0.2-0.4,0.2-0.4,0.4c0,0.2,0.3,0.8,0.6,1
		c0.2,0.1,0.4,0.2,0.6,0.2c1,0,2.3-0.9,2.7-1.1c2.1-1.2,3.5-3,5.3-4c0.3-0.2,0.6-0.3,0.9-0.3c0.7,0,1.2,0.5,1.2,1c0,0.6,0,0.7-0.2,1
		c-0.8,0.7-1.3,1.4-2.4,2.4C137.3,42.2,135.9,43.3,133.3,44.7z M135.5,29.9c-0.2,0-0.6,0.3-1.4,1c-1.4,1.4-2.7,2.9-3.7,5.1
		c-0.3,0.7-0.4,0.8-0.4,0.9c0,0.1,0.1,0.1,0.1,0.1c0.1,0,0.1,0,0.6-0.4c1.6-1.5,2.8-2.8,3.8-4.1c0.5-0.7,0.3-0.7,0.7-1.3
		c0.4-0.6,0.5-0.8,0.5-1.1C135.6,30,135.6,29.9,135.5,29.9z"/>
</g>
<linearGradient id="SVGID_1_" gradientUnits="userSpaceOnUse" x1="193.0197" y1="25.7352" x2="204.7856" y2="20.429">
	<stop  offset="0" style="stop-color:#A1A1A0"/>
	<stop  offset="1.922202e-02" style="stop-color:#A3A3A3"/>
	<stop  offset="0.2309" style="stop-color:#B7B7B7"/>
	<stop  offset="0.4555" style="stop-color:#C6C6C6"/>
	<stop  offset="0.6998" style="stop-color:#CFD0D0"/>
	<stop  offset="1" style="stop-color:#D2D3D3"/>
</linearGradient>
<path fill="url(#SVGID_1_)" d="M194.2,5.6H184l16.4,39.7c0.2,0.4,0.5,0.6,0.6,1c0.1-0.5,0.1-0.8,0.1-1.4V27.2V12.6
	C201.2,8.7,198,5.6,194.2,5.6z"/>
<linearGradient id="SVGID_2_" gradientUnits="userSpaceOnUse" x1="154.7696" y1="50.8453" x2="188.2586" y2="19.2168">
	<stop  offset="0" style="stop-color:#AA53A0"/>
	<stop  offset="1" style="stop-color:#903991"/>
</linearGradient>
<path fill="url(#SVGID_2_)" d="M201.1,46.3l-0.6-1c-4.4-8.3-20.5-18.5-23.4-27.1c-0.7-2-0.2-4.5,1.2-6.1l5.7-6.5h-4.1h-17.7
	c-3.9,0-7,3.1-7,7v32.4c0,3.8,3.1,6.7,7,6.7h3v9.8c0,1.6,2,2.3,3,1.1l9.3-10.9h8.3h8.4C197.6,51.6,200.3,49.7,201.1,46.3z"/>
<linearGradient id="SVGID_3_" gradientUnits="userSpaceOnUse" x1="184.4107" y1="30.0159" x2="192.7447" y2="25.8489">
	<stop  offset="0" style="stop-color:#D9A1C9"/>
	<stop  offset="1" style="stop-color:#B76FAE"/>
</linearGradient>
<path fill="url(#SVGID_3_)" d="M177.1,18.1c2.9,8.6,19.6,19.9,23.9,28.2L184,5.6l-5.7,6.5C176.9,13.6,176.5,16.2,177.1,18.1z"/>
</svg>
